HIERARCHY
ROOT Hips
{
	OFFSET 0.000000 0.000000 0.000000 
	CHANNELS 6 Xposition Yposition Zposition Zrotation Yrotation Xrotation
	JOINT LeftUpLeg
	{
		OFFSET 1.363060 -1.794630 0.839290 
		CHANNELS 3 Zrotation Yrotation Xrotation
		JOINT LeftLeg
		{
			OFFSET 2.448110 -6.726130 0.000000 
			CHANNELS 3 Zrotation Yrotation Xrotation
			JOINT LeftFoot
			{
				OFFSET 2.562200 -7.039590 0.000000 
				CHANNELS 3 Zrotation Yrotation Xrotation
				JOINT LeftToeBase
				{
					OFFSET 0.157640 -0.433110 2.322550 
					CHANNELS 3 Zrotation Yrotation Xrotation
					End Site
					{
						OFFSET 0.000000 0.000000 0.000000 
					}
				}
			}
		}
	}
	JOINT RightUpLeg
	{
		OFFSET -1.305520 -1.794630 0.839290 
		CHANNELS 3 Zrotation Yrotation Xrotation
		JOINT RightLeg
		{
			OFFSET -2.542530 -6.985550 0.000000 
			CHANNELS 3 Zrotation Yrotation Xrotation
			JOINT RightFoot
			{
				OFFSET -2.568260 -7.056230 0.000000 
				CHANNELS 3 Zrotation Yrotation Xrotation
				JOINT RightToeBase
				{
					OFFSET -0.164730 -0.452590 2.363150 
					CHANNELS 3 Zrotation Yrotation Xrotation
					End Site
					{
						OFFSET 0.000000 0.000000 0.000000 
					}
				}
			}
		}
	}
	JOINT Spine
	{
		OFFSET 0.028270 2.035590 -0.193380 
		CHANNELS 3 Zrotation Yrotation Xrotation
		JOINT Spine1
		{
			OFFSET 0.056720 2.048850 -0.042750 
			CHANNELS 3 Zrotation Yrotation Xrotation
			JOINT Neck1
			{
				OFFSET -0.054170 1.746240 0.172020 
				CHANNELS 3 Zrotation Yrotation Xrotation
				JOINT Head
				{
					OFFSET 0.104070 1.761360 -0.123970 
					CHANNELS 3 Zrotation Yrotation Xrotation
					End Site
					{
						OFFSET 0.000000 0.000000 0.000000 
					}
				}
			}
			JOINT LeftArm
			{
				OFFSET 3.362410 1.200890 -0.311210 
				CHANNELS 3 Zrotation Yrotation Xrotation
				JOINT LeftForeArm
				{
					OFFSET 4.983000 -0.000000 -0.000000 
					CHANNELS 3 Zrotation Yrotation Xrotation
					JOINT LeftHand
					{
						OFFSET 3.483560 -0.000000 -0.000000 
						CHANNELS 3 Zrotation Yrotation Xrotation
						JOINT LeftHandIndex1
						{
							OFFSET 0.715260 -0.000000 -0.000000 
							CHANNELS 3 Zrotation Yrotation Xrotation
							End Site
							{
								OFFSET 0.000000 0.000000 0.000000 
							}
						}
					}
				}
			}
			JOINT RightArm
			{
				OFFSET -3.136600 1.374050 -0.404650 
				CHANNELS 3 Zrotation Yrotation Xrotation
				JOINT RightForeArm
				{
					OFFSET -5.241900 -0.000000 -0.000000 
					CHANNELS 3 Zrotation Yrotation Xrotation
					JOINT RightHand
					{
						OFFSET -3.444170 -0.000000 -0.000000 
						CHANNELS 3 Zrotation Yrotation Xrotation
						JOINT RightHandIndex1
						{
							OFFSET -0.622530 -0.000000 -0.000000 
							CHANNELS 3 Zrotation Yrotation Xrotation
							End Site
							{
								OFFSET 0.000000 0.000000 0.000000 
							}
						}
					}
				}
			}
		}
	}
}
MOTION
Frames: 16
Frame Time: 0.041667
-20.562307 17.378352 -3.366426 -135.760846 83.388589 -130.915874 -16.907283 -5.954970 -14.034115 0.067242 10.737365 29.877437 -0.652864 7.881140 -13.744545 3.325800 -11.204700 -32.973300 32.611251 8.605457 -0.044809 2.509912 -5.957990 17.606535 2.745885 -26.020044 -20.017666 -0.080500 1.830400 -5.037200 1.528666 0.442201 -3.648060 -0.788026 -0.354839 -1.760507 6.292721 1.809897 12.044386 0.647800 1.534600 11.413200 -86.138647 3.285814 46.866950 19.261049 -27.787551 -5.936039 -0.365370 -1.913942 -28.040994 -7.125000 0.000000 0.000000 83.978407 -3.822593 39.169039 -17.588774 29.222031 -4.894376 0.655109 -0.133160 -5.543662 7.125000 0.000000 0.000000 
-20.572042 17.380339 -3.325303 -135.949098 83.608253 -131.235494 -16.953144 -6.086136 -13.679209 -0.003676 10.615756 29.541057 -0.691973 8.063984 -13.690156 3.208300 -11.024900 -32.363800 32.534700 8.279432 -0.467663 2.377692 -6.241229 18.339891 2.672401 -25.557364 -19.274857 -0.257100 3.262000 -9.009000 1.514122 0.440065 -3.636495 -0.746525 -0.357425 -1.759598 6.281375 1.771052 12.137364 0.681900 1.503400 11.500100 -86.170864 3.315238 46.825244 19.441016 -27.999076 -6.031904 -0.358233 -1.920722 -27.968573 -7.125000 0.000000 0.000000 83.933276 -3.745799 38.378631 -17.186693 28.833548 -4.685417 0.626989 -0.459313 -4.028441 7.125000 0.000000 0.000000 
-20.584061 17.385405 -3.284478 -138.203114 83.947476 -133.470846 -17.157464 -6.347312 -13.464548 -0.080879 10.526514 29.224629 -0.698719 8.115860 -13.698230 2.994900 -10.686800 -31.230800 32.193397 7.829552 -0.998019 2.262381 -6.454944 18.908721 2.549536 -24.932674 -19.060473 -0.311600 3.588600 -9.921900 1.470022 0.430734 -3.634986 -0.726064 -0.357600 -1.719614 6.261349 1.691395 12.212853 0.694700 1.457700 11.576700 -86.127302 3.290141 46.849464 19.570164 -28.149159 -6.100519 -0.349562 -1.923480 -27.811514 -7.125000 0.000000 0.000000 83.906128 -3.708689 37.623569 -16.823234 28.389766 -4.512142 0.628593 -0.488130 -3.108009 7.125000 0.000000 0.000000 
-20.596875 17.391464 -3.240077 -141.362291 84.250889 -136.574071 -17.341457 -6.654729 -13.367508 -0.132206 10.489282 29.034457 -0.666384 7.984069 -13.757853 2.759400 -10.294900 -29.937100 31.855598 7.397182 -1.368443 2.189816 -6.554761 19.203481 2.438937 -24.389629 -19.067664 -0.267300 3.326100 -9.188100 1.437838 0.388133 -3.644057 -0.649473 -0.370062 -1.700004 6.267860 1.628298 12.285436 0.747500 1.410700 11.642800 -86.144976 3.289921 46.838272 19.675876 -28.270970 -6.158047 -0.342957 -1.926796 -27.582563 -7.125000 0.000000 0.000000 83.804474 -3.740747 37.054427 -16.542832 28.042788 -4.379498 0.631987 -0.509924 -2.412296 7.125000 0.000000 0.000000 
-20.608298 17.391762 -3.187531 -141.697931 84.221456 -137.020397 -17.150588 -6.894331 -13.218514 -0.128146 10.459260 28.974507 -0.575286 7.490871 -13.727020 2.697500 -10.188400 -29.589100 32.022363 7.182517 -1.375838 2.173972 -6.581064 19.281703 2.391282 -24.198441 -19.103776 -0.246500 3.194900 -8.822000 1.454940 0.337979 -3.642419 -0.566109 -0.396451 -1.736482 6.301271 1.585841 12.358311 0.838500 1.366200 11.700700 -86.276872 3.302311 46.585761 19.721087 -28.313225 -6.180490 -0.336049 -1.923769 -27.207142 -7.125000 0.000000 0.000000 83.715519 -3.769646 36.245720 -16.408240 27.884721 -4.334126 0.596474 -0.498225 -0.929241 7.125000 0.000000 0.000000 
-20.621012 17.388981 -3.133992 -140.334934 84.009998 -135.795256 -16.737686 -7.064393 -13.160258 -0.066664 10.443003 29.021120 -0.317438 6.081752 -13.612253 2.607300 -10.030500 -29.075500 32.454842 7.042981 -1.260362 2.196073 -6.549610 19.176183 2.372526 -24.154400 -19.028175 -0.271800 3.353800 -9.265300 1.485550 0.303533 -3.630711 -0.564176 -0.422315 -1.748362 6.327171 1.504171 12.436570 0.907600 1.311300 11.762900 -86.427785 3.232307 46.166070 19.711413 -28.287510 -6.174238 -0.325557 -1.918842 -26.668641 -7.125000 0.000000 0.000000 83.712564 -3.767943 35.388032 -16.151246 27.570975 -4.230336 0.566195 -0.486401 -0.004367 7.125000 0.000000 0.000000 
-20.635514 17.385603 -3.082240 -139.777938 83.859700 -135.276141 -16.416196 -7.379094 -13.177666 -0.053808 10.474380 29.113040 -0.368754 6.361118 -13.663371 2.728600 -10.242200 -29.764700 32.764144 6.939538 -1.179623 2.235872 -6.470546 18.945784 2.336139 -24.057990 -19.167736 -0.230600 3.090700 -8.531400 1.503693 0.271845 -3.628214 -0.585876 -0.444054 -1.737161 6.345789 1.395872 12.528160 0.972700 1.243800 11.847300 -86.583507 3.117273 45.832898 19.689237 -28.250112 -6.168255 -0.317260 -1.924696 -26.177189 -7.125000 0.000000 0.000000 83.644756 -3.786250 34.794046 -15.939847 27.308900 -4.133933 0.568948 -0.504262 0.400408 7.125000 0.000000 0.000000 
-20.649619 17.383716 -3.030092 -140.150520 83.794617 -135.627426 -16.196482 -7.916625 -13.149427 -0.053736 10.520378 29.208832 -0.423871 6.728442 -13.886516 2.724000 -10.234300 -29.738900 32.934794 6.873602 -1.155452 2.276649 -6.387703 18.711105 2.274664 -23.897514 -19.630110 -0.119400 2.227300 -6.134200 1.510042 0.252520 -3.637116 -0.589847 -0.455242 -1.741015 6.345999 1.279911 12.631249 1.022100 1.173400 11.942800 -86.716502 3.094851 45.818324 19.701818 -28.258066 -6.180359 -0.318356 -1.940301 -26.391268 -7.125000 0.000000 0.000000 83.502630 -3.866380 34.445399 -15.763618 27.096599 -4.080129 0.506605 -0.451408 0.570025 7.125000 0.000000 0.000000 
-20.662930 17.384312 -2.980029 -140.638371 83.738206 -136.073072 -15.992336 -8.312049 -13.183477 -0.048358 10.566859 29.309840 -0.453705 6.974635 -14.146118 2.845200 -10.440200 -30.414300 33.079685 6.759198 -1.229286 2.298827 -6.342850 18.568800 2.216545 -23.706644 -19.879576 -0.073400 1.748300 -4.810600 1.499819 0.267585 -3.648212 -0.668241 -0.448197 -1.740434 6.316360 1.190691 12.698387 1.050400 1.112400 12.010600 -86.750576 3.136587 45.827012 19.704913 -28.254833 -6.185694 -0.311181 -1.950633 -26.444009 -7.125000 0.000000 0.000000 83.454497 -3.996015 34.015565 -15.600724 26.897331 -4.011318 0.501435 -0.450643 0.790824 7.125000 0.000000 0.000000 
-20.676737 17.381729 -2.933442 -141.374026 83.682463 -136.751346 -15.810177 -8.463230 -13.351558 -0.026519 10.622333 29.440066 -0.435248 6.946585 -14.338868 3.087100 -10.834700 -31.724400 33.186723 6.577609 -1.396604 2.299459 -6.339941 18.534892 2.186936 -23.559991 -19.775664 -0.085100 1.881200 -5.177400 1.484040 0.248654 -3.662799 -0.755815 -0.460372 -1.713305 6.370426 1.019230 12.834757 1.171200 1.007300 12.157500 -86.783075 3.190703 45.763264 19.677564 -28.201484 -6.164774 -0.306230 -1.948568 -26.461406 -7.125000 0.000000 0.000000 83.396195 -4.080576 33.492007 -15.410249 26.664395 -3.930393 0.499834 -0.453426 1.043632 7.125000 0.000000 0.000000 
-20.690643 17.373982 -2.889538 -142.554709 83.670493 -137.874131 -15.680026 -8.586643 -13.551919 0.014146 10.687443 29.597933 -0.301850 6.346340 -14.555669 2.899600 -10.530700 -30.712900 33.213119 6.286327 -1.642390 2.276710 -6.376531 18.615559 2.158482 -23.376981 -19.547521 -0.109000 2.128900 -5.862100 1.478634 0.205703 -3.676617 -0.838839 -0.479220 -1.728937 6.408620 1.018758 12.813068 1.224000 0.997600 12.137600 -86.895885 3.261999 45.630198 19.606024 -28.104154 -6.118740 -0.308123 -1.940143 -26.447278 -7.125000 0.000000 0.000000 83.242897 -4.205403 33.111592 -15.230498 26.438796 -3.853053 0.499051 -0.458904 1.074356 7.125000 0.000000 0.000000 
-20.704649 17.367724 -2.847223 -143.365268 83.615809 -138.647828 -15.490482 -8.635573 -13.753351 0.078526 10.745116 29.766569 -0.066178 5.198718 -14.714994 2.175000 -9.221500 -26.490600 33.299091 6.008673 -1.937591 2.235136 -6.472722 18.844447 2.125163 -23.181481 -19.350530 -0.168600 2.644900 -7.291600 1.475290 0.205998 -3.693807 -0.982620 -0.473412 -1.795296 6.168464 1.139700 12.816866 1.072600 1.033500 12.120100 -87.039203 3.327093 45.562624 19.509654 -27.983367 -6.063460 -0.313048 -1.935447 -26.410893 -7.125000 0.000000 0.000000 83.140789 -4.374760 32.627626 -15.043245 26.195976 -3.772597 0.500310 -0.459594 1.092406 7.125000 0.000000 0.000000 
-20.721634 17.365737 -2.806795 -144.692761 83.566572 -139.920496 -15.348210 -8.488349 -14.075295 0.156575 10.813014 29.952849 0.144567 3.991563 -14.456682 1.463500 -7.645500 -21.642300 33.359238 5.887293 -2.289387 2.180897 -6.624048 19.212467 2.122246 -23.139760 -19.224245 -0.292000 3.475000 -9.604200 1.472859 0.170097 -3.719208 -1.049078 -0.488535 -1.873615 6.198014 1.153028 12.870772 1.125500 1.032900 12.169800 -87.257282 3.354891 45.442530 19.375359 -27.812170 -5.996129 -0.317143 -1.943867 -26.456839 -7.125000 0.000000 0.000000 83.111040 -4.393990 31.824068 -14.775102 25.843527 -3.658708 0.497623 -0.466045 1.469878 7.125000 0.000000 0.000000 
-20.740408 17.363155 -2.769149 -146.884025 83.572498 -142.070221 -15.306768 -8.123832 -14.507326 0.270362 10.902479 30.199036 0.451106 2.119630 -13.933609 0.923200 -6.121500 -17.137300 33.313160 5.863363 -2.622207 2.120936 -6.789409 19.637343 2.129154 -23.174118 -19.303842 -0.358500 3.846600 -10.645600 1.470222 0.097126 -3.748543 -1.036714 -0.518715 -1.982892 6.364588 1.172511 12.919048 1.279000 1.041400 12.208200 -87.504206 3.408964 45.318734 19.210951 -27.608574 -5.921491 -0.315284 -1.962916 -26.573672 -7.125000 0.000000 0.000000 83.044665 -4.360713 31.067335 -14.481695 25.451383 -3.534482 0.492765 -0.476855 1.874284 7.125000 0.000000 0.000000 
-20.755804 17.354811 -2.734284 -148.315430 83.512459 -143.536238 -15.189834 -7.418298 -15.016683 0.444067 11.007404 30.557028 0.834161 -0.414039 -13.119361 0.435100 -4.232800 -11.732600 33.361874 5.881551 -2.835155 2.070304 -6.939349 20.026347 2.133366 -23.236044 -19.504563 -0.357200 3.839800 -10.626400 1.471377 0.049829 -3.769738 -1.068324 -0.536462 -2.105158 6.408189 1.265593 12.942452 1.333700 1.081400 12.206000 -87.685023 3.487364 45.304014 19.017065 -27.371146 -5.828525 -0.310251 -1.975967 -26.814888 -7.125000 0.000000 0.000000 82.985401 -4.387004 30.335725 -14.204166 25.072733 -3.418213 0.493341 -0.476638 2.169749 7.125000 0.000000 0.000000 
-20.769214 17.341401 -2.704485 -148.656488 83.364013 -143.977307 -14.948417 -6.658510 -15.490805 0.493478 11.154856 30.968575 0.872208 0.414238 -15.016639 2.303800 -9.472100 -27.283500 33.536086 5.880653 -2.922296 2.041384 -7.043466 20.287968 2.154249 -23.372587 -19.601280 -0.374600 3.931100 -10.882800 1.493243 0.002091 -3.769907 -1.131083 -0.558166 -2.161759 6.187358 1.330193 12.931218 1.179300 1.096100 12.201300 -87.903908 3.487361 45.325724 18.823763 -27.137675 -5.736989 -0.298734 -1.991924 -27.405934 -7.125000 0.000000 0.000000 82.894918 -4.389450 29.557771 -13.934875 24.697886 -3.306890 0.495653 -0.472803 2.462374 7.125000 0.000000 0.000000 
